<svg class="hypothesis" style="font-family: 'Helvetica Neue', Helvetica, Arial, sans-serif;font-size: 14px; line-height: 1.42857; color: rgb(51, 51, 51);" width="236" height="176" version="1.1" xmlns="http://www.w3.org/2000/svg"><g transform="translate(10,10)"><g class="output"><g class="clusters"/><g class="edgePaths"><g class="edgePath" style="opacity: 1;"><defs><marker id="arrowhead1176" viewBox="0 0 10 10" refX="9" refY="5" markerUnits="strokeWidth" markerWidth="8" markerHeight="6" orient="auto"><path d="M 0 0 L 10 5 L 0 10 z" style="stroke-width: 1px; stroke-dasharray: 1px, 0px;"/></marker></defs><path class="path" d="M50.03911872269731,15.994897030057858L58.86593226891441,13.329080858381548C67.69274581513153,10.663264686705238,85.34637290756575,5.331632343352619,96.33985312044953,2.6658161716763096C107.33333333333331,0,111.66666666666666,0,116,3.75C120.33333333333333,7.5,124.66666666666666,15,124.66666666666666,22.5C124.66666666666666,30,120.33333333333333,37.5,116,41.25C111.66666666666666,45,107.33333333333331,45,96.33985312044953,42.33418382832369C85.34637290756575,39.668367656647376,67.69274581513153,34.33673531329476,58.86593226891442,31.670919141618448L50.03911872269731,29.005102969942143" marker-end="url(#arrowhead1176)" style="stroke: rgba(0, 0, 0, 0.3); stroke-width: 3; fill:none"/></g><g class="edgePath" style="opacity: 1;"><defs><marker id="arrowhead1177" viewBox="0 0 10 10" refX="9" refY="5" markerUnits="strokeWidth" markerWidth="8" markerHeight="6" orient="auto"><path d="M 0 0 L 10 5 L 0 10 z" style="stroke-width: 1px; stroke-dasharray: 1px, 0px;"/></marker></defs><path class="path" d="M16.872844944624802,41.762898673830556L13.227370787187334,47.802415561525464C9.581896629749869,53.841932449220366,2.2909483148749343,65.92096622461018,2.2909483148749343,78C2.2909483148749343,90.0790337753898,9.581896629749869,102.15806755077962,13.227370787187334,108.19758443847452L16.872844944624802,114.23710132616944" marker-end="url(#arrowhead1177)" style="stroke: rgba(0, 0, 0, 0.3); stroke-width: 3; fill:none"/></g><g class="edgePath" style="opacity: 1;"><defs><marker id="arrowhead1178" viewBox="0 0 10 10" refX="9" refY="5" markerUnits="strokeWidth" markerWidth="8" markerHeight="6" orient="auto"><path d="M 0 0 L 10 5 L 0 10 z" style="stroke-width: 1px; stroke-dasharray: 1px, 0px;"/></marker></defs><path class="path" d="M40.1271550553752,114.23710132616944L43.77262921281266,108.19758443847452C47.41810337025013,102.15806755077962,54.70905168512506,90.0790337753898,54.70905168512506,78C54.70905168512506,65.92096622461018,47.41810337025013,53.841932449220366,43.77262921281266,47.80241556152546L40.1271550553752,41.762898673830556" marker-end="url(#arrowhead1178)" style="stroke: rgba(0, 0, 0, 0.3); stroke-width: 3; fill:none"/></g><g class="edgePath" style="opacity: 1;"><defs><marker id="arrowhead1179" viewBox="0 0 10 10" refX="9" refY="5" markerUnits="strokeWidth" markerWidth="8" markerHeight="6" orient="auto"><path d="M 0 0 L 10 5 L 0 10 z" style="stroke-width: 1px; stroke-dasharray: 1px, 0px;"/></marker></defs><path class="path" d="M49.98894307825283,126.83101766536981L58.49078589854402,124.19251472114149C66.99262871883522,121.5540117769132,83.9963143594176,116.2770058884566,94.58149051304213,113.63850294422829C105.16666666666666,111,109.33333333333331,111,113.49999999999999,114.75C117.66666666666666,118.5,121.83333333333333,126,121.83333333333331,133.5C121.83333333333333,141,117.66666666666666,148.5,113.49999999999999,152.25C109.33333333333331,156,105.16666666666666,156,94.58149051304214,153.3614970557717C83.9963143594176,150.7229941115434,66.99262871883522,145.44598822308677,58.49078589854402,142.80748527885848L49.98894307825283,140.1689823346302" marker-end="url(#arrowhead1179)" style="stroke: rgba(0, 0, 0, 0.3); stroke-width: 3; fill:none"/></g></g><g class="edgeLabels"><g class="edgeLabel" transform="translate(172,22.5)" style="opacity: 1;"><g transform="translate(-40.5,-5.5)" class="label"><text style="display: inline; font-weight: bold; line-height: 1; text-align: center; white-space: nowrap; vertical-align: baseline; font-size: 10px"><tspan xml:space="preserve" dy="1em" x="1">logout/FAILED(1)</tspan></text></g></g><g class="edgeLabel" transform="translate(18.5,78)" style="opacity: 1;"><g transform="translate(-21,-5.5)" class="label"><text style="display: inline; font-weight: bold; line-height: 1; text-align: center; white-space: nowrap; vertical-align: baseline; font-size: 10px"><tspan xml:space="preserve" dy="1em" x="1">login/OK</tspan></text></g></g><g class="edgeLabel" transform="translate(88.5,78)" style="opacity: 1;"><g transform="translate(-24,-5.5)" class="label"><text style="display: inline; font-weight: bold; line-height: 1; text-align: center; white-space: nowrap; vertical-align: baseline; font-size: 10px"><tspan xml:space="preserve" dy="1em" x="1">logout/OK</tspan></text></g></g><g class="edgeLabel" transform="translate(166,133.5)" style="opacity: 1;"><g transform="translate(-37.5,-5.5)" class="label"><text style="display: inline; font-weight: bold; line-height: 1; text-align: center; white-space: nowrap; vertical-align: baseline; font-size: 10px"><tspan xml:space="preserve" dy="1em" x="1">login/FAILED(1)</tspan></text></g></g></g><g class="nodes"><g class="node" transform="translate(28.5,22.5)" style="opacity: 1;"><circle x="-22.5" y="-17" r="22.5" style="fill: #B3E6B3; stroke: #5cb85c; stroke-width: 3"/><g class="label" transform="translate(0,0)"><g transform="translate(-3.5,-7)"><text style="display: inline; font-weight: bold; line-height: 1; text-align: center; white-space: nowrap; vertical-align: baseline; font-size: 12px"><tspan xml:space="preserve" dy="1em" x="1">0</tspan></text></g></g></g><g class="node" transform="translate(28.5,133.5)" style="opacity: 1;"><circle x="-22.5" y="-17" r="22.5" style="fill: #fff; stroke: #000; stroke-width: 1"/><g class="label" transform="translate(0,0)"><g transform="translate(-3.5,-7)"><text style="display: inline; font-weight: bold; line-height: 1; text-align: center; white-space: nowrap; vertical-align: baseline; font-size: 12px"><tspan xml:space="preserve" dy="1em" x="1">1</tspan></text></g></g></g></g></g></g></svg>
