<?xml version="1.0" standalone="no"?>
<!DOCTYPE svg PUBLIC "-//W3C//DTD SVG 20010904//EN"
 "http://www.w3.org/TR/2001/REC-SVG-20010904/DTD/svg10.dtd">
<svg version="1.0" xmlns="http://www.w3.org/2000/svg"
 width="512.000000pt" height="512.000000pt" viewBox="0 0 512.000000 512.000000"
 preserveAspectRatio="xMidYMid meet">
<metadata>
Created by potrace 1.11, written by Peter Selinger 2001-2013
</metadata>
<g transform="translate(0.000000,512.000000) scale(0.100000,-0.100000)"
fill="#000000" stroke="none">
<path d="M502 5109 c-167 -33 -356 -182 -436 -343 -70 -141 -66 1 -66 -2202 0
-1259 4 -2010 10 -2043 36 -189 163 -358 337 -449 149 -77 -24 -72 2213 -72
2237 0 2063 -5 2214 72 148 76 264 216 322 388 18 53 19 127 19 2100 0 1973
-1 2047 -19 2100 -61 181 -176 315 -336 394 -52 25 -119 51 -149 56 -67 12
-4046 12 -4109 -1z m2946 -2422 c326 -728 592 -1327 592 -1330 0 -4 -143 -7
-318 -7 l-317 0 -117 283 -116 282 -623 0 -622 0 -116 -282 -116 -283 -313 0
c-173 0 -312 4 -310 8 2 5 268 604 592 1330 l590 1322 301 0 302 0 591 -1323z"/>
<path d="M2337 2897 c-114 -276 -207 -504 -207 -507 0 -5 833 0 838 5 5 4
-411 1005 -417 1005 -3 0 -99 -226 -214 -503z"/>
</g>
</svg>
